<svg width="239" height="145" viewBox="0 0 239 145" fill="none" xmlns="http://www.w3.org/2000/svg">
<g filter="url(#filter0_d_22:3)">
<path d="M31.7033 60.1932C28.6358 46.2706 40.2724 33.5051 54.4187 35.2741V35.2741C60.1043 35.985 65.8757 35.5044 71.3655 33.8629L76.696 32.2689C84.0031 30.0839 91.7133 29.5994 99.2365 30.8526L118.928 34.1328C123.168 34.8391 127.481 34.9957 131.761 34.5987L150.449 32.8655C153.831 32.5518 157.241 32.9306 160.472 33.9787L164.383 35.2477C166.615 35.9716 168.996 36.1038 171.294 35.6313V35.6313C177.206 34.4158 183.353 35.208 188.763 37.8824L189.905 38.4467C191.525 39.2477 193.309 39.6644 195.116 39.6644V39.6644C201.611 39.6644 206.875 44.9293 206.875 51.4237V56.0043C206.875 57.336 207.038 58.6627 207.36 59.9549L209.336 67.8842C210.378 72.0659 210.321 76.4459 209.171 80.5992L207.707 85.8902C207.156 87.8776 206.94 89.9426 207.067 92.0008V92.0008C207.754 103.171 198.5 112.419 187.33 111.724L149.067 109.341C146.828 109.202 144.581 109.364 142.385 109.825L131.164 112.177C128.459 112.744 125.679 112.858 122.937 112.516L111.658 111.107C108.696 110.737 105.693 110.9 102.789 111.589L90.8804 114.414C87.0863 115.314 83.1343 115.314 79.3402 114.414L68.2766 111.789C64.8324 110.972 61.2461 110.961 57.7967 111.756V111.756C41.1411 115.593 26.2609 100.579 30.2471 83.9584L32.4748 74.6696C33.3042 71.2114 33.3375 67.6101 32.5723 64.1372L31.7033 60.1932Z" stroke="white" stroke-opacity="0.4" shape-rendering="crispEdges"/>
</g>
<g filter="url(#filter1_d_22:3)">
<path d="M27.614 56.3465C24.663 42.0606 36.6985 29.1373 51.158 31.0659V31.0659C57.3607 31.8932 63.6697 31.3361 69.6315 29.4346L74.4701 27.8913C82.2026 25.425 90.4193 24.8782 98.4104 26.2981L118.327 29.8368C122.838 30.6383 127.437 30.816 131.996 30.365L151.036 28.4815C154.63 28.1259 158.258 28.5534 161.672 29.7345L165.63 31.1041C167.932 31.9007 170.41 32.0461 172.789 31.5242V31.5242C178.891 30.1858 185.27 31.0501 190.796 33.9639L191.989 34.5928C193.722 35.5066 195.652 35.9842 197.611 35.9842V35.9842C204.268 35.9842 209.665 41.3808 209.665 48.0379V54.1698C209.665 55.5625 209.825 56.9506 210.142 58.3068L212.461 68.2338C213.382 72.1761 213.331 76.2831 212.314 80.2018L210.483 87.2565C209.941 89.3453 209.728 91.5058 209.853 93.6602V93.6602C210.571 106.107 200.22 116.369 187.78 115.543L149.844 113.023C147.46 112.865 145.065 113.049 142.733 113.571L131.298 116.127C128.425 116.77 125.461 116.899 122.542 116.511L111.098 114.986C107.947 114.566 104.746 114.751 101.664 115.531L89.5854 118.587C85.5608 119.605 81.3459 119.605 77.3213 118.587L66.3152 115.802C62.5479 114.849 58.6041 114.836 54.8304 115.763V115.763C37.7128 119.969 22.1453 104.707 26.0121 87.5094L29.0191 74.1361C29.7988 70.6687 29.8301 67.0749 29.1112 63.5943L27.614 56.3465Z" stroke="white" stroke-opacity="0.3" shape-rendering="crispEdges"/>
</g>
<g filter="url(#filter2_d_22:3)">
<path d="M23.0478 52.7045C20.1276 37.8626 32.7082 24.5684 47.6884 26.6661V26.6661C54.4336 27.6106 61.3059 26.9766 67.7644 24.8139L72.5384 23.2153C80.603 20.5148 89.2231 19.9161 97.5836 21.4756L118.449 25.3678C123.174 26.2493 128.002 26.4448 132.783 25.9482L152.72 23.8775C156.482 23.4868 160.284 23.9547 163.839 25.2462L168.02 26.7649C170.422 27.6378 173.026 27.797 175.518 27.2234V27.2234C181.889 25.7562 188.579 26.6964 194.3 29.8632L195.565 30.5639C197.421 31.5913 199.508 32.1303 201.629 32.1303V32.1303C208.544 32.1303 214.15 37.736 214.15 44.6509V52.2308C214.15 53.6992 214.311 55.1632 214.63 56.5966L217.273 68.4763C218.112 72.2456 218.066 76.1579 217.139 79.9064L214.974 88.6652C214.428 90.8744 214.213 93.1526 214.338 95.4249V95.4249C215.095 109.193 203.612 120.509 189.856 119.55L151.477 116.874C148.977 116.699 146.465 116.902 144.025 117.475L132.039 120.288C129.032 120.994 125.921 121.137 122.863 120.709L110.881 119.033C107.58 118.571 104.221 118.774 100.999 119.63L88.3304 122.995C84.1245 124.112 79.6999 124.112 75.494 122.995L64.2047 119.996C60.1003 118.906 55.7843 118.891 51.6722 119.951V119.951C33.8651 124.546 17.4476 108.796 21.2989 90.8134L25.0428 73.3327C25.7524 70.0191 25.781 66.5958 25.1268 63.2708L23.0478 52.7045Z" stroke="white" stroke-opacity="0.2" shape-rendering="crispEdges"/>
</g>
<defs>
<filter id="filter0_d_22:3" x="9.09323" y="9.673" width="221.484" height="125.916" filterUnits="userSpaceOnUse" color-interpolation-filters="sRGB">
<feFlood flood-opacity="0" result="BackgroundImageFix"/>
<feColorMatrix in="SourceAlpha" type="matrix" values="0 0 0 0 0 0 0 0 0 0 0 0 0 0 0 0 0 0 127 0" result="hardAlpha"/>
<feOffset/>
<feGaussianBlur stdDeviation="10"/>
<feComposite in2="hardAlpha" operator="out"/>
<feColorMatrix type="matrix" values="0 0 0 0 1 0 0 0 0 1 0 0 0 0 1 0 0 0 0.3 0"/>
<feBlend mode="normal" in2="BackgroundImageFix" result="effect1_dropShadow_22:3"/>
<feBlend mode="normal" in="SourceGraphic" in2="effect1_dropShadow_22:3" result="shape"/>
</filter>
<filter id="filter1_d_22:3" x="4.91574" y="5.02701" width="228.701" height="134.824" filterUnits="userSpaceOnUse" color-interpolation-filters="sRGB">
<feFlood flood-opacity="0" result="BackgroundImageFix"/>
<feColorMatrix in="SourceAlpha" type="matrix" values="0 0 0 0 0 0 0 0 0 0 0 0 0 0 0 0 0 0 127 0" result="hardAlpha"/>
<feOffset/>
<feGaussianBlur stdDeviation="10"/>
<feComposite in2="hardAlpha" operator="out"/>
<feColorMatrix type="matrix" values="0 0 0 0 1 0 0 0 0 1 0 0 0 0 1 0 0 0 0.3 0"/>
<feBlend mode="normal" in2="BackgroundImageFix" result="effect1_dropShadow_22:3"/>
<feBlend mode="normal" in="SourceGraphic" in2="effect1_dropShadow_22:3" result="shape"/>
</filter>
<filter id="filter2_d_22:3" x="0.232361" y="0.127777" width="238.138" height="144.205" filterUnits="userSpaceOnUse" color-interpolation-filters="sRGB">
<feFlood flood-opacity="0" result="BackgroundImageFix"/>
<feColorMatrix in="SourceAlpha" type="matrix" values="0 0 0 0 0 0 0 0 0 0 0 0 0 0 0 0 0 0 127 0" result="hardAlpha"/>
<feOffset/>
<feGaussianBlur stdDeviation="10"/>
<feComposite in2="hardAlpha" operator="out"/>
<feColorMatrix type="matrix" values="0 0 0 0 1 0 0 0 0 1 0 0 0 0 1 0 0 0 0.3 0"/>
<feBlend mode="normal" in2="BackgroundImageFix" result="effect1_dropShadow_22:3"/>
<feBlend mode="normal" in="SourceGraphic" in2="effect1_dropShadow_22:3" result="shape"/>
</filter>
</defs>
</svg>
