<svg width="374" height="579" viewBox="0 0 374 579" fill="none" xmlns="http://www.w3.org/2000/svg">
<path fill-rule="evenodd" clip-rule="evenodd" d="M271.512 429.287C269.838 446.424 239.099 458.109 198.1 459.104C198.057 459.104 197.971 459.104 197.928 459.104C188.14 459.32 177.75 458.974 167.017 457.935C145.208 455.815 125.288 451.184 109.232 445.039C102.706 442.572 96.8676 439.846 91.7588 436.946C77.3338 428.724 69.091 419.117 69.9926 409.553C71.8815 390.035 111.464 377.615 161.007 379.952C165.429 380.168 169.937 380.471 174.488 380.947C196.726 383.111 217.032 387.914 233.218 394.189C257.56 403.58 272.757 416.477 271.512 429.287Z" fill="white" stroke="white" stroke-width="2.13" stroke-linecap="round" stroke-linejoin="round"/>
<path d="M281.429 416.001C286.667 422.492 287.182 428.161 286.882 435.432C285.894 458.801 254.426 463.864 236.867 469.101" stroke="white" stroke-width="2.13" stroke-linecap="round" stroke-linejoin="round"/>
<path d="M106.227 371.253C80.8971 375.537 50.4588 392.285 59.689 422.752" stroke="white" stroke-width="2.13" stroke-linecap="round" stroke-linejoin="round"/>
<path d="M218.664 435.821C219.995 433.961 219.78 435.172 218.235 435.518C212.696 436.773 207.158 438.245 201.663 439.716C194.708 441.577 188.784 446.121 182.387 449.41" stroke="#1C2628" stroke-width="2.13" stroke-linecap="round" stroke-linejoin="round"/>
<g filter="url(#filter0_d_21:2)">
<path d="M93.2064 268.876L93.2178 268.874L93.2292 268.873C95.5701 268.494 97.8308 268.16 99.8789 268.07C101.938 267.979 103.682 268.143 105.026 268.688C106.32 269.213 107.267 270.099 107.786 271.581C108.324 273.118 108.429 275.373 107.8 278.646L107.8 278.649C107.637 279.507 106.934 282.676 105.191 285.759C103.446 288.845 100.758 291.688 96.6672 292.255L96.6556 292.256L96.644 292.258C92.2954 292.965 88.8961 291.962 86.4822 290.109C84.0535 288.243 82.551 285.462 82.113 282.497C81.6751 279.532 82.3081 276.427 84.0948 273.926C85.8707 271.44 88.8369 269.48 93.2064 268.876Z" stroke="white" stroke-width="2"/>
</g>
<path fill-rule="evenodd" clip-rule="evenodd" d="M161.308 270.765C155.941 271.891 153.795 276.781 156.413 281.888C157.143 283.316 161.436 289.547 165.3 288.855C167.146 288.509 173.028 289.331 171.869 275.18C171.139 269.64 168.477 269.294 161.308 270.765Z" fill="#030514" stroke="white" stroke-width="2.13" stroke-linecap="round" stroke-linejoin="round"/>
<path fill-rule="evenodd" clip-rule="evenodd" d="M242.62 352.731C236.137 374.629 203.509 425.002 201.191 433.355L200.847 431.926C193.506 434.523 151.39 434.912 137.609 421.54C136.236 420.199 135.162 418.77 134.39 417.126L145.809 388.477C145.122 389.472 138.382 383.457 146.239 366.839C148.385 362.295 152.85 350.004 152.85 350.004C153.194 348.143 154.181 340.916 155.383 332.088C155.211 331.785 155.168 331.612 155.168 331.612C151.39 329.015 137.223 330.054 134.003 318.889C133.531 317.201 133.273 315.21 133.359 312.873C133.445 310.277 135.034 309.065 136.837 308.546C138.597 308.026 140.572 308.113 141.559 308.199C146.883 308.502 152.077 310.493 157.014 312.57C157.358 312.7 157.658 312.873 158.002 313.003C159.676 300.843 161.265 290.283 161.78 289.721C162.638 288.768 163.454 287.816 164.27 286.908C166.846 284.051 169.465 281.888 173.886 283.532C176.763 284.571 179.553 285.696 182.215 286.994C187.839 289.721 192.948 293.183 197.026 298.333C201.062 303.396 204.711 308.849 207.459 314.691C209.949 319.971 211.58 325.726 212.611 331.439C213.34 335.334 213.856 339.402 213.598 343.383C213.555 344.378 213.426 345.331 213.254 346.326C212.482 350.697 211.408 354.981 210.206 359.222L242.62 352.731Z" fill="#030514" stroke="white" stroke-width="2.13" stroke-linecap="round" stroke-linejoin="round"/>
<path fill-rule="evenodd" clip-rule="evenodd" d="M137.609 421.54C136.236 420.199 135.162 418.77 134.39 417.126L145.809 388.477C145.122 389.472 138.382 383.457 146.239 366.839C148.385 362.295 152.85 350.004 152.85 350.004C153.193 348.144 154.181 340.916 155.383 332.088C155.211 331.785 155.168 331.612 155.168 331.612C151.39 329.015 137.223 330.054 134.003 318.889C137.137 319.451 140.486 320.49 144.049 321.572C151.176 323.736 155.469 325.034 157.744 329.059C160.406 333.733 157.1 336.329 159.29 347.365C159.934 350.697 160.578 352.082 161.393 356.972C162.338 362.598 162.767 365.454 161.951 367.575C159.891 372.811 153.837 373.33 153.923 376.619C153.966 378.567 156.113 379.346 158.302 381.423C158.302 381.423 164.141 386.876 164.613 396.786C165.214 409.293 148.814 423.747 137.609 421.54Z" fill="#030514"/>
<path d="M145.645 420.305L145.635 420.313L145.626 420.322C143.82 422.143 142.598 424.848 142.265 427.648C141.931 430.451 142.482 433.407 144.301 435.699L144.313 435.714L144.326 435.728C149.883 441.744 154.287 448.803 157.23 456.245C139.595 453.845 123.443 449.827 109.986 444.747L137.32 402.207C137.555 402.995 138.008 404.11 138.879 405.473C140.584 408.141 143.885 411.748 150.273 415.722C148.812 417.319 147.248 418.846 145.645 420.305Z" fill="#030514" stroke="white"/>
<path fill-rule="evenodd" clip-rule="evenodd" d="M163.712 421.93C158.517 419.766 154.396 417.645 151.047 415.611C149.501 417.386 147.784 419.073 145.981 420.675C142.547 424.137 141.259 431.061 144.693 435.389C150.532 441.664 155.083 449.064 158.002 456.854C160.964 457.243 163.969 457.589 167.017 457.892C177.707 458.931 188.097 459.32 197.928 459.061C197.971 459.061 198.057 459.061 198.1 459.061L210.163 425.002C210.163 425.046 194.665 434.826 163.712 421.93Z" fill="#030514"/>
<path fill-rule="evenodd" clip-rule="evenodd" d="M215.873 328.626C217.075 325.38 215.358 320.274 214.414 317.028C209.133 299.198 194.193 290.24 179.21 281.498C174.015 278.469 171.096 277.949 166.416 286.518C163.926 291.062 162.295 302.227 165.687 305.343C175.775 314.475 188.268 321.658 195.137 333.17C196.168 334.901 201.405 350.48 201.405 350.48C201.405 350.48 204.754 346.542 208.875 342.95C212.31 339.921 213.297 339.705 213.813 338.969L215.873 328.626Z" fill="#F7AA9A"/>
<path d="M261.767 261.028C260.522 260.379 260.007 258.865 260.651 257.566L260.737 257.436C261.381 256.181 262.883 255.662 264.171 256.311C265.416 256.96 265.931 258.475 265.287 259.773L265.201 259.903C264.515 261.201 263.012 261.678 261.767 261.028ZM263.656 257.35C262.969 257.004 262.153 257.263 261.767 257.956L261.681 258.086C261.338 258.778 261.595 259.6 262.282 259.99C262.969 260.336 263.785 260.076 264.171 259.384L264.257 259.254C264.6 258.518 264.343 257.696 263.656 257.35Z" fill="#1C2628" stroke="#1C2628" stroke-width="2.13" stroke-linecap="round" stroke-linejoin="round"/>
<path d="M259.062 266.351C257.817 265.702 257.302 264.188 257.946 262.889L258.032 262.759C258.676 261.504 260.178 260.985 261.466 261.634C262.754 262.283 263.227 263.798 262.583 265.096L262.497 265.226C261.81 266.524 260.307 267 259.062 266.351ZM260.908 262.673C260.221 262.327 259.406 262.586 259.019 263.279L258.933 263.409C258.59 264.101 258.848 264.923 259.534 265.313C260.221 265.702 261.037 265.399 261.423 264.707L261.509 264.577C261.896 263.841 261.638 263.019 260.908 262.673Z" fill="#1C2628" stroke="#1C2628" stroke-width="2.13" stroke-linecap="round" stroke-linejoin="round"/>
<path d="M263.742 254.537C261.896 253.585 261.209 251.291 262.11 249.474L265.244 243.372C266.189 241.511 268.421 240.818 270.267 241.727C272.113 242.679 272.8 244.973 271.899 246.79L268.765 252.892C267.82 254.753 265.545 255.489 263.742 254.537ZM269.752 242.766C268.464 242.117 266.919 242.593 266.275 243.891L263.141 249.993C262.497 251.291 262.969 252.849 264.257 253.498C265.545 254.147 267.09 253.671 267.734 252.373L270.868 246.271C271.512 244.973 271.04 243.415 269.752 242.766Z" fill="#1C2628" stroke="#1C2628" stroke-width="2.13" stroke-linecap="round" stroke-linejoin="round"/>
<path fill-rule="evenodd" clip-rule="evenodd" d="M285.336 218.228L221.283 343.6C219.351 347.408 214.714 348.879 210.936 346.932L154.911 317.85C151.133 315.903 149.673 311.229 151.605 307.421L187.925 236.274C189.213 236.188 190.501 236.101 191.832 236.015L154.739 308.676C153.623 310.883 154.481 313.609 156.671 314.778L212.267 343.6C212.911 343.946 213.598 344.119 214.328 344.119C216.002 344.119 217.548 343.167 218.32 341.652L282.116 216.757C282.331 216.324 282.46 215.891 282.546 215.458C282.589 215.458 282.632 215.415 282.674 215.415C283.877 214.896 285.036 214.333 286.195 213.814C286.324 215.242 286.066 216.8 285.336 218.228Z" stroke="white" stroke-width="2.13" stroke-linecap="round" stroke-linejoin="round"/>
<path d="M245.148 288.336C246.479 288.249 247.767 288.163 249.055 288.076L285.934 217.21C287.865 213.402 285.847 208.448 282.069 206.5L226.044 177.419C222.266 175.471 217.629 176.943 215.697 180.751L187.443 237.265" stroke="white" stroke-width="2.13" stroke-linecap="round" stroke-linejoin="round"/>
<path d="M188.135 239.511L191.977 231.999" stroke="#030514" stroke-width="1.2"/>
<path fill-rule="evenodd" clip-rule="evenodd" d="M282.503 215.458C282.417 215.891 282.288 216.324 282.073 216.757L218.32 341.652C217.548 343.167 216.002 344.119 214.328 344.119C213.598 344.119 212.911 343.946 212.267 343.6L156.671 314.778C154.481 313.652 153.623 310.926 154.739 308.676L191.832 236.058C200.461 235.452 209.863 234.37 219.694 232.769C244.337 228.701 266.79 222.339 282.503 215.458Z" fill="#030514"/>
<path fill-rule="evenodd" clip-rule="evenodd" d="M250.691 322.221C251.12 324.558 246.569 345.331 240.731 358.184L176.462 370.474C176.462 370.474 178.137 364.112 181.614 357.058C184.705 350.783 189.17 343.989 195.137 340.613C212.739 330.66 226.177 335.377 226.177 335.377C226.177 335.377 227.035 327.674 232.488 317.893C232.488 317.893 232.531 316.249 232.788 313.782C233.303 308.849 234.677 300.799 238.326 297.121C246.14 289.245 252.322 290.802 251.893 292.014C252.236 293.659 251.077 321.053 250.691 322.221Z" fill="#030514" stroke="white" stroke-width="2.13" stroke-linecap="round" stroke-linejoin="round"/>
<path fill-rule="evenodd" clip-rule="evenodd" d="M151.09 282.277C145.638 283.445 143.448 288.379 146.11 293.615C146.84 295.044 151.219 301.448 155.168 300.713C157.014 300.366 163.025 301.189 161.866 286.778C161.093 281.152 158.345 280.762 151.09 282.277Z" fill="#030514" stroke="white" stroke-width="2.13" stroke-linecap="round" stroke-linejoin="round"/>
<path d="M197.928 459.104C188.14 459.32 177.75 458.974 167.017 457.936C145.208 455.815 125.288 451.184 109.232 445.039" stroke="white" stroke-width="2.13" stroke-linecap="round" stroke-linejoin="round"/>
<path d="M138.554 403.927C138.554 403.927 140.486 410.202 151.047 415.611C161.608 421.021 172.556 428.334 187.968 428.334" stroke="white" stroke-width="2.13" stroke-linecap="round" stroke-linejoin="round"/>
<path d="M246.011 293.486C246.011 293.486 244.423 303.266 246.011 304.824C247.6 306.425 249.918 306.425 249.918 306.425" stroke="white" stroke-width="2.13" stroke-linecap="round" stroke-linejoin="round"/>
<path fill-rule="evenodd" clip-rule="evenodd" d="M226.649 342.821C220.295 345.85 217.075 340.787 208.875 342.95C198.787 345.677 197.928 354.938 189.256 357.145C187.238 357.664 184.705 357.837 181.571 357.058C184.662 350.783 189.127 343.989 195.095 340.613C212.696 330.66 226.134 335.377 226.134 335.377C226.134 335.377 226.993 327.674 232.445 317.893C232.445 317.893 233.612 316.07 233.869 313.603C235.758 316.329 235.965 319.624 236.352 323C237.167 330.66 233.218 339.661 226.649 342.821Z" fill="#030514"/>
<path fill-rule="evenodd" clip-rule="evenodd" d="M170.838 375.71C170.28 372.248 177.793 368.31 184.104 365.021C198.057 357.751 213.126 355.154 215.186 354.808C223.73 353.423 229.397 353.51 234.634 348.663C237.811 345.763 241.46 340.267 242.577 340.657C244.38 341.306 243.178 353.034 239.7 360.477C231.715 377.658 206.085 380.644 201.448 381.207C188.054 382.894 171.611 380.601 170.838 375.71Z" fill="#030514"/>
<path d="M274.99 276.132L262.025 284.83" stroke="white" stroke-width="2.13" stroke-linecap="round" stroke-linejoin="round"/>
<path d="M275.763 289.721L262.282 291.278" stroke="white" stroke-width="2.13" stroke-linecap="round" stroke-linejoin="round"/>
<path d="M261.252 297.943L273.702 311.532" stroke="white" stroke-width="2.13" stroke-linecap="round" stroke-linejoin="round"/>
<path d="M261.767 311.791L267.863 319.235" stroke="white" stroke-width="2.13" stroke-linecap="round" stroke-linejoin="round"/>
<path d="M138.983 425.305C137.438 428.94 136.407 433.095 137.738 436.773C138.726 439.586 140.958 441.75 142.847 444.087C144.736 446.424 146.367 449.28 145.895 452.266" stroke="white" stroke-width="2.13" stroke-linecap="round" stroke-linejoin="round"/>
<path d="M145.766 442.183C147.011 444.78 149.673 446.424 150.832 449.021C151.39 450.276 151.562 451.704 151.562 453.089" stroke="white" stroke-width="2.13" stroke-linecap="round" stroke-linejoin="round"/>
<path d="M159.376 394.622C159.376 396.613 159.376 398.647 159.032 400.638C158.689 402.628 157.959 404.576 156.628 406.047C155.211 407.648 153.236 408.644 151.347 409.596" stroke="white" stroke-width="2.13" stroke-linecap="round" stroke-linejoin="round"/>
<path d="M160.921 404.489C160.363 406.22 159.204 407.778 157.701 408.817" stroke="white" stroke-width="2.13" stroke-linecap="round" stroke-linejoin="round"/>
<path d="M149.673 294.091C149.458 292.187 149.244 290.197 149.974 288.466C150.703 286.734 152.764 285.35 154.524 286.129" stroke="white" stroke-width="2.13" stroke-linecap="round" stroke-linejoin="round"/>
<path d="M234.463 352.428C225.404 367.618 216.818 383.154 208.747 398.907" stroke="white" stroke-width="2.13" stroke-linecap="round" stroke-linejoin="round"/>
<path d="M222.442 382.938L205.269 416.217" stroke="white" stroke-width="2.13" stroke-linecap="round" stroke-linejoin="round"/>
<path d="M243.822 330.79C241.117 342.431 241.847 350.524 231.672 366.666" stroke="white" stroke-width="2.13" stroke-linecap="round" stroke-linejoin="round"/>
<path d="M270.267 473.905C246.183 480.353 221.97 488.965 197.069 487.45" stroke="white" stroke-width="2.13" stroke-linecap="round" stroke-linejoin="round"/>
<path d="M222.313 280.113C233.338 280.113 242.276 271.104 242.276 259.99C242.276 248.876 233.338 239.866 222.313 239.866C211.288 239.866 202.35 248.876 202.35 259.99C202.35 271.104 211.288 280.113 222.313 280.113Z" fill="#35F3FD"/>
<path d="M208.961 252.892C212.825 245.449 221.97 242.593 229.311 246.531" stroke="#030514" stroke-width="2.13" stroke-linecap="round" stroke-linejoin="round"/>
<path d="M212.653 254.84C215.444 249.474 222.055 247.396 227.379 250.253" stroke="#030514" stroke-width="2.13" stroke-linecap="round" stroke-linejoin="round"/>
<path d="M222.313 262.716C223.807 262.716 225.018 261.495 225.018 259.99C225.018 258.484 223.807 257.263 222.313 257.263C220.819 257.263 219.608 258.484 219.608 259.99C219.608 261.495 220.819 262.716 222.313 262.716Z" stroke="#030514" stroke-width="2.13" stroke-linecap="round" stroke-linejoin="round"/>
<path d="M223.515 274.531L218.106 284.917" stroke="#030514" stroke-width="2.13" stroke-linecap="round" stroke-linejoin="round"/>
<path d="M223.515 274.531C222.656 274.098 222.356 273.016 222.785 272.194L223.687 270.506C224.116 269.64 225.189 269.337 226.005 269.77C226.864 270.203 227.164 271.285 226.735 272.107L225.833 273.795C225.404 274.66 224.331 274.963 223.515 274.531Z" stroke="#030514" stroke-width="2.13" stroke-linecap="round" stroke-linejoin="round"/>
<path d="M188.44 285.35L219.05 301.059" stroke="white" stroke-width="2.13" stroke-linecap="round" stroke-linejoin="round"/>
<path d="M201.105 300.756L220.038 310.536" stroke="white" stroke-width="2.13" stroke-linecap="round" stroke-linejoin="round"/>
<path d="M180.154 289.98L201.105 300.756" stroke="black" stroke-width="6" stroke-linecap="round" stroke-linejoin="round"/>
<path d="M175.861 311.488L169.507 300.669L181.958 300.496L175.861 311.488Z" fill="#1C2628" stroke="white" stroke-width="2.13" stroke-linecap="round" stroke-linejoin="round"/>
<path d="M203.294 326.981L215.787 326.852L209.391 316.033L203.294 326.981Z" fill="#1C2628" stroke="white" stroke-width="2.13" stroke-linecap="round" stroke-linejoin="round"/>
<path d="M191.925 306.168L185.811 317.15L188.993 318.95L195.107 307.968L191.925 306.168Z" fill="#35F3FD" stroke="#35F3FD" stroke-width="1.5" stroke-miterlimit="3.9998" stroke-linecap="round" stroke-linejoin="round"/>
<path d="M197.364 309.235L191.25 320.217L194.432 322.017L200.546 311.035L197.364 309.235Z" fill="#35F3FD" stroke="#35F3FD" stroke-width="1.5" stroke-miterlimit="3.9998" stroke-linecap="round" stroke-linejoin="round"/>
<path d="M191.116 236.238L218.288 182.472C219.547 179.982 222.6 179.003 225.072 180.299L280.666 209.433C282.654 210.475 283.704 212.713 283.235 214.907L283.019 215.915" stroke="white" stroke-width="1.2"/>
<path d="M191.73 237.613L193.729 233.78" stroke="#030514" stroke-width="1.2"/>
<path d="M282.145 214.164L282.038 214.895C282.011 215.082 281.957 215.264 281.879 215.436L281.495 216.279" stroke="#030514" stroke-width="1.2"/>
<path d="M283.915 216.392V216.392C284.49 214.727 284.525 212.922 284.014 211.235L283.994 211.168" stroke="#030514"/>
<path d="M284.138 217.098L284.778 215.457C285.158 214.48 285.204 213.404 284.906 212.398V212.398" stroke="#030514"/>
<g filter="url(#filter1_d_21:2)">
<path d="M90.0644 483.166L86.773 505.76C86.2567 509.304 82.3176 511.191 79.265 509.357L59.8044 497.662C56.3927 495.612 56.6445 490.561 60.2443 488.836L82.9963 477.937C86.5961 476.212 90.6414 479.205 90.0644 483.166Z" fill="white"/>
</g>
<g filter="url(#filter2_d_21:2)">
<path d="M322.598 339.101L332.08 359.832C333.563 363.075 331.309 366.786 327.769 366.929L305.138 367.844C301.154 368.005 298.59 363.626 300.667 360.206L313.816 338.56C315.893 335.141 320.929 335.451 322.598 339.101Z" fill="white"/>
</g>
<path d="M1.42859 34.6294C39.3678 103.532 154.287 165.565 286.151 83.845" stroke="white" stroke-opacity="0.15" stroke-width="2" stroke-linecap="round"/>
<path d="M169.388 93.2501C224.803 95.0794 293.693 55.359 334.042 1.50191" stroke="white" stroke-opacity="0.15" stroke-width="2" stroke-linecap="round"/>
<path d="M172.138 223.512C227.554 225.341 331.357 159.69 371.706 105.833" stroke="white" stroke-opacity="0.15" stroke-width="2" stroke-linecap="round"/>
<g filter="url(#filter3_d_21:2)">
<ellipse cx="91.4136" cy="129.667" rx="3.67743" ry="3.7065" fill="white"/>
</g>
<g filter="url(#filter4_d_21:2)">
<ellipse cx="299.476" cy="514.032" rx="3.67743" ry="3.7065" fill="white"/>
</g>
<g filter="url(#filter5_d_21:2)">
<ellipse cx="317.483" cy="42.7899" rx="1.70845" ry="1.72195" fill="white"/>
</g>
<g filter="url(#filter6_d_21:2)">
<ellipse cx="264.975" cy="35.8871" rx="2.00558" ry="2.02143" fill="white"/>
</g>
<g filter="url(#filter7_d_21:2)">
<ellipse cx="200.856" cy="89.97" rx="2.51933" ry="2.53924" fill="#EBFF00"/>
</g>
<g filter="url(#filter8_d_21:2)">
<ellipse cx="41.614" cy="60.8408" rx="1.1782" ry="1.18751" fill="white"/>
</g>
<g filter="url(#filter9_d_21:2)">
<ellipse cx="321.215" cy="155.272" rx="5.44073" ry="5.48373" fill="white"/>
</g>
<path d="M55.3983 220.932C60.4405 214.283 69.5292 206.566 69.6444 226.757" stroke="white" stroke-width="2" stroke-linecap="round"/>
<path d="M119.56 83.037C116.452 75.8242 120.028 59.6987 136.522 68.8393" stroke="white" stroke-width="2" stroke-linecap="round"/>
<g filter="url(#filter10_d_21:2)">
<path d="M179.072 524.583C185.307 531.975 191.239 551.478 168.516 546.648" stroke="#35F3FD" stroke-width="2" stroke-linecap="round"/>
</g>
<defs>
<filter id="filter0_d_21:2" x="60.9795" y="247.046" width="68.2523" height="66.4393" filterUnits="userSpaceOnUse" color-interpolation-filters="sRGB">
<feFlood flood-opacity="0" result="BackgroundImageFix"/>
<feColorMatrix in="SourceAlpha" type="matrix" values="0 0 0 0 0 0 0 0 0 0 0 0 0 0 0 0 0 0 127 0" result="hardAlpha"/>
<feOffset/>
<feGaussianBlur stdDeviation="10"/>
<feComposite in2="hardAlpha" operator="out"/>
<feColorMatrix type="matrix" values="0 0 0 0 1 0 0 0 0 1 0 0 0 0 1 0 0 0 0.5 0"/>
<feBlend mode="normal" in2="BackgroundImageFix" result="effect1_dropShadow_21:2"/>
<feBlend mode="normal" in="SourceGraphic" in2="effect1_dropShadow_21:2" result="shape"/>
</filter>
<filter id="filter1_d_21:2" x="37.3887" y="457.438" width="72.731" height="72.6314" filterUnits="userSpaceOnUse" color-interpolation-filters="sRGB">
<feFlood flood-opacity="0" result="BackgroundImageFix"/>
<feColorMatrix in="SourceAlpha" type="matrix" values="0 0 0 0 0 0 0 0 0 0 0 0 0 0 0 0 0 0 127 0" result="hardAlpha"/>
<feOffset/>
<feGaussianBlur stdDeviation="10"/>
<feComposite in2="hardAlpha" operator="out"/>
<feColorMatrix type="matrix" values="0 0 0 0 1 0 0 0 0 1 0 0 0 0 1 0 0 0 0.5 0"/>
<feBlend mode="normal" in2="BackgroundImageFix" result="effect1_dropShadow_21:2"/>
<feBlend mode="normal" in="SourceGraphic" in2="effect1_dropShadow_21:2" result="shape"/>
</filter>
<filter id="filter2_d_21:2" x="279.929" y="316.17" width="72.6137" height="71.678" filterUnits="userSpaceOnUse" color-interpolation-filters="sRGB">
<feFlood flood-opacity="0" result="BackgroundImageFix"/>
<feColorMatrix in="SourceAlpha" type="matrix" values="0 0 0 0 0 0 0 0 0 0 0 0 0 0 0 0 0 0 127 0" result="hardAlpha"/>
<feOffset/>
<feGaussianBlur stdDeviation="10"/>
<feComposite in2="hardAlpha" operator="out"/>
<feColorMatrix type="matrix" values="0 0 0 0 1 0 0 0 0 1 0 0 0 0 1 0 0 0 0.5 0"/>
<feBlend mode="normal" in2="BackgroundImageFix" result="effect1_dropShadow_21:2"/>
<feBlend mode="normal" in="SourceGraphic" in2="effect1_dropShadow_21:2" result="shape"/>
</filter>
<filter id="filter3_d_21:2" x="67.7362" y="105.961" width="47.3549" height="47.413" filterUnits="userSpaceOnUse" color-interpolation-filters="sRGB">
<feFlood flood-opacity="0" result="BackgroundImageFix"/>
<feColorMatrix in="SourceAlpha" type="matrix" values="0 0 0 0 0 0 0 0 0 0 0 0 0 0 0 0 0 0 127 0" result="hardAlpha"/>
<feOffset/>
<feGaussianBlur stdDeviation="10"/>
<feComposite in2="hardAlpha" operator="out"/>
<feColorMatrix type="matrix" values="0 0 0 0 1 0 0 0 0 1 0 0 0 0 1 0 0 0 0.5 0"/>
<feBlend mode="normal" in2="BackgroundImageFix" result="effect1_dropShadow_21:2"/>
<feBlend mode="normal" in="SourceGraphic" in2="effect1_dropShadow_21:2" result="shape"/>
</filter>
<filter id="filter4_d_21:2" x="275.799" y="490.325" width="47.3549" height="47.413" filterUnits="userSpaceOnUse" color-interpolation-filters="sRGB">
<feFlood flood-opacity="0" result="BackgroundImageFix"/>
<feColorMatrix in="SourceAlpha" type="matrix" values="0 0 0 0 0 0 0 0 0 0 0 0 0 0 0 0 0 0 127 0" result="hardAlpha"/>
<feOffset/>
<feGaussianBlur stdDeviation="10"/>
<feComposite in2="hardAlpha" operator="out"/>
<feColorMatrix type="matrix" values="0 0 0 0 1 0 0 0 0 1 0 0 0 0 1 0 0 0 0.5 0"/>
<feBlend mode="normal" in2="BackgroundImageFix" result="effect1_dropShadow_21:2"/>
<feBlend mode="normal" in="SourceGraphic" in2="effect1_dropShadow_21:2" result="shape"/>
</filter>
<filter id="filter5_d_21:2" x="295.774" y="21.0679" width="43.4169" height="43.4439" filterUnits="userSpaceOnUse" color-interpolation-filters="sRGB">
<feFlood flood-opacity="0" result="BackgroundImageFix"/>
<feColorMatrix in="SourceAlpha" type="matrix" values="0 0 0 0 0 0 0 0 0 0 0 0 0 0 0 0 0 0 127 0" result="hardAlpha"/>
<feOffset/>
<feGaussianBlur stdDeviation="10"/>
<feComposite in2="hardAlpha" operator="out"/>
<feColorMatrix type="matrix" values="0 0 0 0 1 0 0 0 0 1 0 0 0 0 1 0 0 0 1 0"/>
<feBlend mode="normal" in2="BackgroundImageFix" result="effect1_dropShadow_21:2"/>
<feBlend mode="normal" in="SourceGraphic" in2="effect1_dropShadow_21:2" result="shape"/>
</filter>
<filter id="filter6_d_21:2" x="242.969" y="13.8656" width="44.0112" height="44.0429" filterUnits="userSpaceOnUse" color-interpolation-filters="sRGB">
<feFlood flood-opacity="0" result="BackgroundImageFix"/>
<feColorMatrix in="SourceAlpha" type="matrix" values="0 0 0 0 0 0 0 0 0 0 0 0 0 0 0 0 0 0 127 0" result="hardAlpha"/>
<feOffset/>
<feGaussianBlur stdDeviation="10"/>
<feComposite in2="hardAlpha" operator="out"/>
<feColorMatrix type="matrix" values="0 0 0 0 1 0 0 0 0 1 0 0 0 0 1 0 0 0 1 0"/>
<feBlend mode="normal" in2="BackgroundImageFix" result="effect1_dropShadow_21:2"/>
<feBlend mode="normal" in="SourceGraphic" in2="effect1_dropShadow_21:2" result="shape"/>
</filter>
<filter id="filter7_d_21:2" x="168.337" y="57.4307" width="65.0387" height="65.0785" filterUnits="userSpaceOnUse" color-interpolation-filters="sRGB">
<feFlood flood-opacity="0" result="BackgroundImageFix"/>
<feColorMatrix in="SourceAlpha" type="matrix" values="0 0 0 0 0 0 0 0 0 0 0 0 0 0 0 0 0 0 127 0" result="hardAlpha"/>
<feOffset/>
<feGaussianBlur stdDeviation="15"/>
<feComposite in2="hardAlpha" operator="out"/>
<feColorMatrix type="matrix" values="0 0 0 0 1 0 0 0 0 1 0 0 0 0 1 0 0 0 1 0"/>
<feBlend mode="normal" in2="BackgroundImageFix" result="effect1_dropShadow_21:2"/>
<feBlend mode="normal" in="SourceGraphic" in2="effect1_dropShadow_21:2" result="shape"/>
</filter>
<filter id="filter8_d_21:2" x="20.4358" y="39.6533" width="42.3564" height="42.375" filterUnits="userSpaceOnUse" color-interpolation-filters="sRGB">
<feFlood flood-opacity="0" result="BackgroundImageFix"/>
<feColorMatrix in="SourceAlpha" type="matrix" values="0 0 0 0 0 0 0 0 0 0 0 0 0 0 0 0 0 0 127 0" result="hardAlpha"/>
<feOffset/>
<feGaussianBlur stdDeviation="10"/>
<feComposite in2="hardAlpha" operator="out"/>
<feColorMatrix type="matrix" values="0 0 0 0 1 0 0 0 0 1 0 0 0 0 1 0 0 0 1 0"/>
<feBlend mode="normal" in2="BackgroundImageFix" result="effect1_dropShadow_21:2"/>
<feBlend mode="normal" in="SourceGraphic" in2="effect1_dropShadow_21:2" result="shape"/>
</filter>
<filter id="filter9_d_21:2" x="295.774" y="129.788" width="50.8815" height="50.9675" filterUnits="userSpaceOnUse" color-interpolation-filters="sRGB">
<feFlood flood-opacity="0" result="BackgroundImageFix"/>
<feColorMatrix in="SourceAlpha" type="matrix" values="0 0 0 0 0 0 0 0 0 0 0 0 0 0 0 0 0 0 127 0" result="hardAlpha"/>
<feOffset/>
<feGaussianBlur stdDeviation="10"/>
<feComposite in2="hardAlpha" operator="out"/>
<feColorMatrix type="matrix" values="0 0 0 0 1 0 0 0 0 1 0 0 0 0 1 0 0 0 0.5 0"/>
<feBlend mode="normal" in2="BackgroundImageFix" result="effect1_dropShadow_21:2"/>
<feBlend mode="normal" in="SourceGraphic" in2="effect1_dropShadow_21:2" result="shape"/>
</filter>
<filter id="filter10_d_21:2" x="137.52" y="493.579" width="78.2001" height="84.8319" filterUnits="userSpaceOnUse" color-interpolation-filters="sRGB">
<feFlood flood-opacity="0" result="BackgroundImageFix"/>
<feColorMatrix in="SourceAlpha" type="matrix" values="0 0 0 0 0 0 0 0 0 0 0 0 0 0 0 0 0 0 127 0" result="hardAlpha"/>
<feOffset/>
<feGaussianBlur stdDeviation="15"/>
<feComposite in2="hardAlpha" operator="out"/>
<feColorMatrix type="matrix" values="0 0 0 0 1 0 0 0 0 1 0 0 0 0 1 0 0 0 1 0"/>
<feBlend mode="normal" in2="BackgroundImageFix" result="effect1_dropShadow_21:2"/>
<feBlend mode="normal" in="SourceGraphic" in2="effect1_dropShadow_21:2" result="shape"/>
</filter>
</defs>
</svg>
