<svg width="19" height="24" viewBox="0 0 19 24" fill="none" xmlns="http://www.w3.org/2000/svg">
<path d="M17.8429 20.2927V10.0483C17.8428 9.60197 17.6655 9.17398 17.35 8.85838L9.91929 1.42767C9.60369 1.11214 9.17569 0.934851 8.72941 0.934784H3.53486C2.86521 0.934784 2.22298 1.2008 1.74946 1.67432C1.27594 2.14784 1.00992 2.79007 1.00992 3.45973V20.2927C1.00992 20.9624 1.27594 21.6046 1.74946 22.0781C2.22298 22.5516 2.86521 22.8176 3.53486 22.8176H15.3179C15.9876 22.8176 16.6298 22.5516 17.1033 22.0781C17.5769 21.6046 17.8429 20.9624 17.8429 20.2927Z" fill="white" stroke="white" stroke-width="1.8" stroke-linecap="round" stroke-linejoin="round"/>
<path d="M9.42639 1.35559V7.66795C9.42639 8.11439 9.60374 8.54254 9.91942 8.85822C10.2351 9.1739 10.6633 9.35125 11.1097 9.35125H17.4221" fill="#030514"/>
<path d="M9.42639 1.35559V7.66795C9.42639 8.11439 9.60374 8.54254 9.91942 8.85822C10.2351 9.1739 10.6633 9.35125 11.1097 9.35125H17.4221" stroke="white" stroke-width="2" stroke-linecap="round" stroke-linejoin="round"/>
</svg>
