<svg width="20" height="25" viewBox="0 0 20 25" fill="none" xmlns="http://www.w3.org/2000/svg">
<path d="M18.422 20.8737V10.6293C18.422 10.183 18.2447 9.75498 17.9292 9.43937L10.4985 2.00867C10.1828 1.69313 9.75486 1.51585 9.30857 1.51578H4.11403C3.44437 1.51578 2.80214 1.7818 2.32862 2.25532C1.8551 2.72884 1.58908 3.37107 1.58908 4.04072V20.8737C1.58908 21.5433 1.8551 22.1856 2.32862 22.6591C2.80214 23.1326 3.44437 23.3986 4.11403 23.3986H15.8971C16.5668 23.3986 17.209 23.1326 17.6825 22.6591C18.156 22.1856 18.422 21.5433 18.422 20.8737Z" fill="#818289" stroke="#818289" stroke-width="1.8" stroke-linecap="round" stroke-linejoin="round"/>
<path d="M10.0056 1.93658V8.24895C10.0056 8.69538 10.1829 9.12354 10.4986 9.43922C10.8143 9.7549 11.2424 9.93224 11.6889 9.93224H18.0012" fill="#030514"/>
<path d="M10.0056 1.93658V8.24895C10.0056 8.69538 10.1829 9.12354 10.4986 9.43922C10.8143 9.7549 11.2424 9.93224 11.6889 9.93224H18.0012" stroke="#818289" stroke-width="2" stroke-linecap="round" stroke-linejoin="round"/>
</svg>
