<svg width="23" height="23" viewBox="0 0 23 23" fill="none" xmlns="http://www.w3.org/2000/svg">
<path d="M18.2762 18.2973L20.0987 20.1198L21.0099 21.031M18.9236 10.4397C18.9236 11.5566 18.7036 12.6626 18.2762 13.6944C17.8488 14.7263 17.2223 15.6639 16.4326 16.4536C15.6428 17.2434 14.7052 17.8699 13.6734 18.2973C12.6415 18.7247 11.5355 18.9447 10.4186 18.9447C9.30176 18.9447 8.19581 18.7247 7.16394 18.2973C6.13207 17.8699 5.1945 17.2434 4.40474 16.4536C3.61498 15.6639 2.98851 14.7263 2.5611 13.6944C2.13368 12.6626 1.9137 11.5566 1.9137 10.4397C1.9137 8.18408 2.80975 6.02081 4.40474 4.42583C5.99973 2.83084 8.16299 1.93478 10.4186 1.93478C12.6743 1.93478 14.8376 2.83084 16.4326 4.42583C18.0275 6.02081 18.9236 8.18408 18.9236 10.4397Z" stroke="white" stroke-width="2" stroke-linecap="round" stroke-linejoin="round"/>
</svg>
