<svg width="22" height="22" viewBox="0 0 22 22" fill="none" xmlns="http://www.w3.org/2000/svg">
<path d="M17.8554 17.8783L19.6778 19.7008L20.5891 20.612M18.5028 10.0207C18.5028 11.1376 18.2828 12.2436 17.8554 13.2754C17.4279 14.3073 16.8015 15.2449 16.0117 16.0346C15.222 16.8244 14.2844 17.4509 13.2525 17.8783C12.2206 18.3057 11.1147 18.5257 9.99781 18.5257C8.88092 18.5257 7.77497 18.3057 6.74311 17.8783C5.71124 17.4509 4.77366 16.8244 3.9839 16.0346C3.19414 15.2449 2.56767 14.3073 2.14026 13.2754C1.71285 12.2436 1.49286 11.1376 1.49286 10.0207C1.49286 7.76507 2.38891 5.60181 3.9839 4.00682C5.57889 2.41183 7.74216 1.51578 9.99781 1.51578C12.2535 1.51578 14.4167 2.41183 16.0117 4.00682C17.6067 5.60181 18.5028 7.76507 18.5028 10.0207Z" stroke="#818289" stroke-width="2" stroke-linecap="round" stroke-linejoin="round"/>
</svg>
